<svg width="25" height="24" viewBox="0 0 25 24" fill="none" xmlns="http://www.w3.org/2000/svg">
<g id="Frame" clip-path="url(#clip0_1547_57106)">
<path id="Vector" d="M20.0731 8.83006C22.5272 8.83006 24.5001 6.85713 24.5001 4.41503C24.5001 1.97293 22.5152 0 20.0731 0C17.6189 0 15.646 1.97293 15.646 4.41503C15.646 6.85713 17.6189 8.83006 20.0731 8.83006Z" fill="white"/>
<path id="Vector_2" d="M4.92711 23.8916C7.38124 23.8916 9.35417 21.9187 9.35417 19.4766C9.35417 17.0345 7.36921 15.0615 4.92711 15.0615C2.47298 15.0615 0.500054 17.0345 0.500054 19.4766C0.488024 21.9187 2.47298 23.8916 4.92711 23.8916Z" fill="white"/>
<path id="Vector_3" d="M16.9332 1.29926C12.7347 -0.433066 7.71816 0.397008 4.30163 3.78948C0.885094 7.19398 0.0550209 12.1744 1.78735 16.3609L16.9332 1.29926Z" fill="white"/>
<path id="Vector_4" d="M8.05493 22.6046C12.2534 24.3369 17.2699 23.5068 20.6865 20.1144C24.103 16.7099 24.9331 11.7294 23.2008 7.54297L8.05493 22.6046Z" fill="white"/>
</g>
<defs>
<clipPath id="clip0_1547_57106">
<rect width="24" height="24" fill="white" transform="translate(0.5)"/>
</clipPath>
</defs>
</svg>
